<svg width="67" height="27" viewBox="0 0 67 27" fill="none" xmlns="http://www.w3.org/2000/svg">
<path d="M10.328 3.776C12.0133 3.776 13.4533 3.97867 14.648 4.384C15.864 4.768 16.8667 5.33333 17.656 6.08C18.2533 6.61333 18.7333 7.22133 19.096 7.904C19.48 8.58667 19.7573 9.376 19.928 10.272C20.12 11.168 20.216 12.2027 20.216 13.376V21.888H0.92V13.312C0.92 12.2027 1.00533 11.2107 1.176 10.336C1.368 9.44 1.64533 8.65067 2.008 7.968C2.392 7.264 2.86133 6.64533 3.416 6.112C4.20533 5.36533 5.15467 4.78933 6.264 4.384C7.39467 3.97867 8.74933 3.776 10.328 3.776ZM8.824 6.048C7.928 6.048 7.13867 6.272 6.456 6.72C5.77333 7.168 5.21867 7.76533 4.792 8.512C4.45067 9.10933 4.17333 9.84533 3.96 10.72C3.768 11.5733 3.672 12.64 3.672 13.92V19.712H3.832C5.28267 18.624 6.57333 17.4827 7.704 16.288C8.83467 15.0933 9.72 13.8773 10.36 12.64C11.0213 11.4027 11.352 10.1973 11.352 9.024C11.352 8.42667 11.256 7.91467 11.064 7.488C10.8933 7.04 10.6267 6.688 10.264 6.432C9.90133 6.176 9.42133 6.048 8.824 6.048ZM14.104 9.312C14.104 10.5707 13.816 11.808 13.24 13.024C12.664 14.24 11.8427 15.4667 10.776 16.704C9.70933 17.92 8.44 19.168 6.968 20.448L6.904 19.808C7.52267 19.7653 8.13067 19.7333 8.728 19.712C9.32533 19.6693 9.92267 19.648 10.52 19.648H17.464V13.92C17.464 12.3413 17.304 11.0293 16.984 9.984C16.6853 8.93867 16.184 8.10667 15.48 7.488C14.776 6.848 13.848 6.37867 12.696 6.08L12.76 5.856C13.1653 6.32533 13.4853 6.82667 13.72 7.36C13.976 7.872 14.104 8.52267 14.104 9.312ZM27.117 0.639999V26.56H24.685V0.639999H27.117Z" fill="#11262B"/>
<path d="M46.6475 24H30.9995V21.472H33.5275V5.728H30.9995V3.2H46.3915L47.0315 9.152L44.5035 9.376L43.8635 5.728H36.4395V12.224H45.9115V14.72H36.4395V21.472H44.1515L44.7915 17.824L47.2875 18.048L46.6475 24ZM66.7705 24H59.3465V21.824H61.6505V15.648C61.6505 14.1973 61.3732 13.1733 60.8185 12.576C60.2638 11.9573 59.5278 11.648 58.6105 11.648C57.4158 11.648 56.4665 12.0427 55.7625 12.832C55.0585 13.6213 54.6852 14.5387 54.6425 15.584V21.824H56.9465V24H49.5225V21.824H51.8265V11.904H49.4265V9.696H54.6425V12.128C55.6452 10.3147 57.2665 9.408 59.5065 9.408C60.8932 9.408 62.0665 9.83467 63.0265 10.688C63.9865 11.5413 64.4665 12.8747 64.4665 14.688V21.824H66.7705V24Z" fill="#51C671"/>
</svg>
